# xmcd
#
# Track frame offsets:
# 150
# 21159
# 39165
# 57800
# 73058
# 90861
# 106141
# 122048
# 141254
# 159410
# 171506
#
# Disc length: 2481 seconds
#
#
# Revision: 0
# Processed by: cddbd v1.5.2PL0 Copyright (c) Steve Scherf et al.
# Submitted via: FreeRIP 2.944 
#
DISCID=8909af0b
DTITLE=Barbie Isham - Audience of One
DYEAR=2003
DGENRE=Contemporary Christian
TTITLE0=Relentless
TTITLE1=Because He Did
TTITLE2=When Your Arms Are Empty
TTITLE3=Audience of One
TTITLE4=It's in Your Hands
TTITLE5=I Will Trust
TTITLE6=I'm with Him
TTITLE7=Turn to You
TTITLE8=Never Alone
TTITLE9=All in how you look at things
TTITLE10=Thank you is all I can Say
EXTD=
EXTT0=
EXTT1=
EXTT2=
EXTT3=
EXTT4=
EXTT5=
EXTT6=
EXTT7=
EXTT8=
EXTT9=
EXTT10=
PLAYORDER=
